<svg width="400" height="300" viewBox="0 0 400 300" xmlns="http://www.w3.org/2000/svg">
  <defs>
    <linearGradient id="bgGradient" x1="0%" y1="0%" x2="100%" y2="100%">
      <stop offset="0%" style="stop-color:#1e293b;stop-opacity:1" />
      <stop offset="100%" style="stop-color:#334155;stop-opacity:1" />
    </linearGradient>
    <radialGradient id="lightGradient" cx="50%" cy="50%" r="50%">
      <stop offset="0%" style="stop-color:#fbbf24;stop-opacity:0.8" />
      <stop offset="70%" style="stop-color:#f59e0b;stop-opacity:0.4" />
      <stop offset="100%" style="stop-color:#d97706;stop-opacity:0" />
    </radialGradient>
    <filter id="glow" x="-50%" y="-50%" width="200%" height="200%">
      <feGaussianBlur stdDeviation="3" result="coloredBlur"/>
      <feMerge> 
        <feMergeNode in="coloredBlur"/>
        <feMergeNode in="SourceGraphic"/>
      </feMerge>
    </filter>
  </defs>
  
  <!-- Background -->
  <rect width="400" height="300" fill="url(#bgGradient)"/>
  
  <!-- Subject (person) -->
  <circle cx="200" cy="200" r="15" fill="#f1f5f9"/>
  <rect x="195" y="215" width="10" height="35" fill="#f1f5f9"/>
  
  <!-- Three-point lighting setup -->
  <!-- Key light (main light) -->
  <g transform="translate(120, 80)">
    <circle cx="0" cy="0" r="8" fill="#fbbf24" filter="url(#glow)"/>
    <circle cx="0" cy="0" r="4" fill="#f59e0b"/>
    <text x="0" y="20" text-anchor="middle" font-size="10" fill="#f1f5f9">主光</text>
    <line x1="0" y1="8" x2="180" y2="192" stroke="#fbbf24" stroke-width="2" opacity="0.6"/>
  </g>
  
  <!-- Fill light (secondary light) -->
  <g transform="translate(280, 120)">
    <circle cx="0" cy="0" r="6" fill="#60a5fa" filter="url(#glow)"/>
    <circle cx="0" cy="0" r="3" fill="#3b82f6"/>
    <text x="0" y="20" text-anchor="middle" font-size="10" fill="#f1f5f9">補光</text>
    <line x1="0" y1="6" x2="220" y2="194" stroke="#60a5fa" stroke-width="2" opacity="0.6"/>
  </g>
  
  <!-- Back light (rim light) -->
  <g transform="translate(200, 60)">
    <circle cx="0" cy="0" r="5" fill="#a78bfa" filter="url(#glow)"/>
    <circle cx="0" cy="0" r="2.5" fill="#8b5cf6"/>
    <text x="0" y="20" text-anchor="middle" font-size="10" fill="#f1f5f9">背光</text>
    <line x1="0" y1="5" x2="200" y2="185" stroke="#a78bfa" stroke-width="2" opacity="0.6"/>
  </g>
  
  <!-- Light cones -->
  <ellipse cx="200" cy="200" rx="60" ry="40" fill="url(#lightGradient)" opacity="0.3"/>
  
  <!-- Title -->
  <text x="200" y="30" text-anchor="middle" font-size="16" font-weight="bold" fill="#f1f5f9">三點打光設置</text>
  
  <!-- Legend -->
  <g transform="translate(20, 50)">
    <circle cx="5" cy="5" r="4" fill="#fbbf24"/>
    <text x="15" y="8" font-size="10" fill="#f1f5f9">主光 - 主要光源</text>
    
    <circle cx="5" cy="20" r="3" fill="#60a5fa"/>
    <text x="15" y="23" font-size="10" fill="#f1f5f9">補光 - 填充陰影</text>
    
    <circle cx="5" cy="35" r="2.5" fill="#a78bfa"/>
    <text x="15" y="38" font-size="10" fill="#f1f5f9">背光 - 輪廓光</text>
  </g>
  
  <!-- Lighting effect on subject -->
  <circle cx="200" cy="200" r="15" fill="none" stroke="#fbbf24" stroke-width="2" opacity="0.8"/>
  <circle cx="200" cy="200" r="12" fill="none" stroke="#60a5fa" stroke-width="1" opacity="0.6"/>
</svg> 